<svg width="24" height="24" viewBox="0 0 24 24" fill="none" xmlns="http://www.w3.org/2000/svg">
<path d="M14 4.5H21" stroke="#292D32" stroke-width="1.5" stroke-linecap="round" stroke-linejoin="round"/>
<path d="M14 9.5H21" stroke="#292D32" stroke-width="1.5" stroke-linecap="round" stroke-linejoin="round"/>
<path d="M14 14.5H21" stroke="#292D32" stroke-width="1.5" stroke-linecap="round" stroke-linejoin="round"/>
<path d="M14 19.5H21" stroke="#292D32" stroke-width="1.5" stroke-linecap="round" stroke-linejoin="round"/>
<path d="M9 8.43V5.57C9 4.45 8.55 4 7.42 4H4.57C3.45 4 3 4.45 3 5.57V8.42C3 9.55 3.45 10 4.57 10H7.42C8.55 10 9 9.55 9 8.43Z" stroke="#292D32" stroke-width="1.5" stroke-linecap="round" stroke-linejoin="round"/>
<path d="M9 17.93V15.07C9 13.95 8.55 13.5 7.42 13.5H4.57C3.45 13.5 3 13.95 3 15.07V17.92C3 19.05 3.45 19.5 4.57 19.5H7.42C8.55 19.5 9 19.05 9 17.93Z" stroke="#292D32" stroke-width="1.5" stroke-linecap="round" stroke-linejoin="round"/>
</svg>
