<svg width="24" height="24" viewBox="0 0 24 24" fill="none" xmlns="http://www.w3.org/2000/svg">
<path d="M14 4.5H21" stroke="#292D32" stroke-width="1.5" stroke-linecap="round" stroke-linejoin="round"/>
<path d="M14 9.5H21" stroke="#292D32" stroke-width="1.5" stroke-linecap="round" stroke-linejoin="round"/>
<path d="M14 14.5H21" stroke="#292D32" stroke-width="1.5" stroke-linecap="round" stroke-linejoin="round"/>
<path d="M14 19.5H21" stroke="#292D32" stroke-width="1.5" stroke-linecap="round" stroke-linejoin="round"/>
<path d="M7.00284 4.18182V10H5.77273V5.34943H5.73864L4.40625 6.18466V5.09375L5.84659 4.18182H7.00284Z" fill="black"/>
<path d="M4.47159 20V19.1136L6.54261 17.196C6.71875 17.0256 6.86648 16.8722 6.9858 16.7358C7.10701 16.5994 7.19886 16.4659 7.26136 16.3352C7.32386 16.2027 7.35511 16.0597 7.35511 15.9062C7.35511 15.7358 7.31629 15.589 7.23864 15.4659C7.16098 15.3409 7.05492 15.2453 6.92045 15.179C6.78598 15.1108 6.63352 15.0767 6.46307 15.0767C6.28504 15.0767 6.12973 15.1127 5.99716 15.1847C5.86458 15.2566 5.76231 15.3598 5.69034 15.4943C5.61837 15.6288 5.58239 15.7888 5.58239 15.9744H4.41477C4.41477 15.5937 4.50095 15.2633 4.6733 14.983C4.84564 14.7027 5.08712 14.4858 5.39773 14.3324C5.70833 14.179 6.06629 14.1023 6.47159 14.1023C6.88826 14.1023 7.25095 14.1761 7.55966 14.3239C7.87027 14.4697 8.11174 14.6723 8.28409 14.9318C8.45644 15.1913 8.54261 15.4886 8.54261 15.8239C8.54261 16.0436 8.49905 16.2604 8.41193 16.4744C8.3267 16.6884 8.17424 16.9261 7.95455 17.1875C7.73485 17.447 7.42519 17.7585 7.02557 18.1222L6.17614 18.9545V18.9943H8.61932V20H4.47159Z" fill="black"/>
</svg>
